<svg version="1.2" xmlns="http://www.w3.org/2000/svg" viewBox="0 0 75 75" width="75" height="75"><defs><clipPath clipPathUnits="userSpaceOnUse" id="cp1"><path d="m-163-2153h1440v6000h-1440z"/></clipPath></defs><style>.a{fill:#60ffc7}</style><g clip-path="url(#cp1)"><path class="a" d="m19.3 68.6c-0.7 0-1.2-0.5-1.2-1.2 0-0.7 0.5-1.2 1.2-1.2 0.6 0 1.2 0.5 1.2 1.2 0 0.7-0.6 1.2-1.2 1.2z"/><path class="a" d="m55.8 68.6c-0.7 0-1.2-0.5-1.2-1.2 0-0.7 0.5-1.2 1.2-1.2 0.7 0 1.2 0.5 1.2 1.2 0 0.7-0.5 1.2-1.2 1.2z"/><path fill-rule="evenodd" class="a" d="m74.1 42.4v11c0 3.3-2.7 6.1-6.1 6.1h-1.7c-1 2.1-3 3.5-5.3 3.6 1 1.2 1.5 2.7 1.5 4.3 0 3.7-3 6.7-6.7 6.7-3.7 0-6.7-3-6.7-6.7 0-1.6 0.6-3.1 1.6-4.3h-26.3c1 1.2 1.6 2.7 1.6 4.3 0 3.7-3 6.7-6.7 6.7-3.7 0-6.7-3-6.7-6.7 0-1.6 0.5-3.1 1.5-4.3-2.3-0.1-4.3-1.5-5.3-3.6h-1.7c-3.4 0-6.1-2.8-6.1-6.1v-11c0-1.3 1.1-2.4 2.4-2.4h4.9v-22.5l-6.2-4.2c-0.7-0.4-1.1-1.2-1.1-2v-3c0-1.3 1.1-2.4 2.4-2.4h5c0.6-2.9 3.1-4.9 6-4.9h46.3c3.4 0 6.1 2.7 6.1 6.1v32.9h4.9c1.3 0 2.4 1.1 2.4 2.4zm-65.8 0h-4.9v11c0 2 1.7 3.6 3.7 3.6h1.2zm0-34.1h-4.9v3l4.9 3.3zm20.7 1.2c0 0.7 0.6 1.2 1.2 1.2h14.7c0.6 0 1.2-0.5 1.2-1.2 0-0.7-0.6-1.2-1.2-1.2h-14.7c-0.6 0-1.2 0.5-1.2 1.2zm-5.5 57.9c0-2.4-1.9-4.3-4.2-4.3-2.4 0-4.3 1.9-4.3 4.3 0 2.3 1.9 4.2 4.3 4.2 2.3 0 4.2-1.9 4.2-4.2zm22.6-17.7c0-0.7-0.6-1.2-1.2-1.2h-14.7c-0.6 0-1.2 0.5-1.2 1.2 0 0.7 0.6 1.2 1.2 1.2h14.7c0.6 0 1.2-0.5 1.2-1.2zm14 17.7c0-2.4-1.9-4.3-4.3-4.3-2.3 0-4.2 1.9-4.2 4.3 0 2.3 1.9 4.2 4.2 4.2 2.4 0 4.3-1.9 4.3-4.2zm4.2-31.1h-53.6v2.4h53.6zm-34.1-7.3h14.7c0.6 0 1.2-0.5 1.2-1.2 0-0.7-0.6-1.2-1.2-1.2h-14.7c-0.6 0-1.2 0.5-1.2 1.2 0 0.7 0.6 1.2 1.2 1.2zm34.1-13.4h-53.6v2.5h53.6zm7.4 26.8h-4.9v14.6h1.2c2 0 3.6-1.7 3.7-3.7z"/></g></svg>