<svg version="1.2" xmlns="http://www.w3.org/2000/svg" viewBox="0 0 34 34" width="34" height="34"><defs><clipPath clipPathUnits="userSpaceOnUse" id="cp1"><path d="m-1160-4086h1440v6000h-1440z"/></clipPath></defs><style>.a{fill:#fff}</style><g clip-path="url(#cp1)"><path fill-rule="evenodd" class="a" d="m0.4 2.8c0-1.3 1.1-2.4 2.4-2.4h28.4c1.3 0 2.4 1.1 2.4 2.4v28.4c0 1.3-1.1 2.4-2.4 2.4h-28.4c-1.3 0-2.4-1.1-2.4-2.4zm10.3 5c0-1.6-1.3-2.8-2.9-2.8-1.6 0-2.8 1.2-2.8 2.8 0 0.8 0.3 1.5 0.8 2 0.5 0.6 1.2 0.9 2 0.9 1.6 0 2.9-1.3 2.9-2.9zm-5.4 20.9h5v-15.9h-5zm23.4-8.7c0-4.2-0.9-7.5-5.9-7.5-2.4 0-4 1.3-4.7 2.6v-2.2h-4.7v15.8h4.9v-7.8c0-2.1 0.4-4.1 2.9-4.1 2.5 0 2.6 2.4 2.6 4.2v7.7h4.9c0 0 0-8.7 0-8.7z"/></g></svg>