<svg version="1.2" xmlns="http://www.w3.org/2000/svg" viewBox="0 0 93 71" width="93" height="71"><defs><clipPath clipPathUnits="userSpaceOnUse" id="cp1"><path d="m-973-2159h1440v6000h-1440z"/></clipPath></defs><style>.a{fill:#60ffc7}</style><g clip-path="url(#cp1)"><path fill-rule="evenodd" class="a" d="m6.3 70.8c-1.5 0-2.8-0.6-3.8-1.5-0.9-1-1.5-2.3-1.5-3.8v-38.3c0-1.5 0.6-2.8 1.5-3.7 1-1 2.3-1.6 3.8-1.6h34.8v-1.1c0-1.9 0.8-3.6 1.9-4.9 1.2-1.3 2.8-2.2 4.6-2.2h2.4v-2.5h-2.4c-0.5 0-1-0.4-1-1v-6.1c0-1 0.4-1.8 1-2.4 0.6-0.6 1.4-1 2.4-1h18.6c0.9 0 1.8 0.4 2.4 1 0.6 0.6 1 1.4 1 2.4v6.1c0 0.6-0.5 1-1.1 1h-2.6v2.5h3.9c1.8 0 3.5 0.9 4.7 2.2 1.1 1.3 1.8 3 1.8 4.9v8.7h9.8c1 0 1.9 0.4 2.5 1 0.6 0.7 1 1.5 1 2.5v6.9c0 0.6-0.4 1-1 1h-1v25.4c0 1.2-0.5 2.4-1.3 3.2-0.8 0.8-2 1.3-3.2 1.3zm81.7-29.9h-16.9v25.4c0 0.6 0.3 1.3 0.7 1.7 0.4 0.4 1 0.7 1.7 0.7h12c0.7 0 1.3-0.3 1.7-0.7 0.5-0.4 0.8-1.1 0.8-1.7v-3h-8.7c-0.3 0-0.5-0.2-0.5-0.5v-13.8c0-0.3 0.2-0.6 0.5-0.6h8.7zm-19 0h-1c-0.5 0-1-0.4-1-1v-6.9c0-1 0.4-1.9 1-2.5 0.7-0.6 1.5-1 2.5-1h6.2v-8.7c0-1.4-0.5-2.6-1.4-3.5-0.8-0.9-1.8-1.5-3-1.5h-24.6c-1.2 0-2.3 0.6-3.1 1.5-0.8 0.9-1.3 2.1-1.3 3.5v42.9c0 1.4 0.5 2.7 1.3 3.6 0.8 0.9 1.9 1.4 3.1 1.4h22c-0.4-0.7-0.7-1.5-0.7-2.4zm19 21.3v-12.8h-8.2v12.8zm-19.3-59.5h-18.6c-0.4 0-0.7 0.1-0.9 0.4-0.3 0.2-0.4 0.5-0.4 0.9v5.1h21.2v-5.1c0-0.4-0.2-0.7-0.4-0.9-0.2-0.3-0.6-0.4-0.9-0.4zm-5 1.7c0-0.3 0.3-0.5 0.6-0.5 0.3 0 0.5 0.2 0.5 0.5v3.1c0 0.3-0.2 0.5-0.5 0.5-0.3 0-0.6-0.2-0.6-0.5zm-3.2 0c0-0.3 0.2-0.5 0.5-0.5 0.3 0 0.5 0.2 0.5 0.5v3c0 0.3-0.2 0.6-0.5 0.6-0.3 0-0.5-0.3-0.5-0.6zm-3.3 0c0-0.2 0.3-0.5 0.5-0.5 0.3 0 0.6 0.3 0.6 0.5v3.1c0 0.3-0.3 0.5-0.6 0.5-0.2 0-0.5-0.2-0.5-0.5zm-3.2 0c0-0.3 0.2-0.5 0.5-0.5 0.3 0 0.5 0.2 0.5 0.5v3.1c0 0.3-0.2 0.5-0.5 0.5-0.3 0-0.5-0.2-0.5-0.5zm-3.3 0c0-0.3 0.2-0.6 0.5-0.6 0.3 0 0.6 0.3 0.6 0.6v3c0 0.3-0.3 0.5-0.6 0.5-0.3 0-0.5-0.2-0.5-0.5zm5.6 32.5c3 0 5.7 1.2 7.7 3.2 1.9 1.9 3.1 4.6 3.1 7.6 0 3-1.2 5.7-3.1 7.7-2 1.9-4.7 3.1-7.7 3.1-3 0-5.7-1.2-7.6-3.1-2-2-3.2-4.7-3.2-7.7 0-3 1.2-5.7 3.2-7.6 1.9-2 4.6-3.2 7.6-3.2zm6.7 4.2c-1.7-1.7-4.1-2.8-6.7-2.8-2.6 0-4.9 1.1-6.6 2.8-1.7 1.7-2.8 4-2.8 6.6 0 2.6 1.1 5 2.8 6.7 1.7 1.7 4 2.7 6.6 2.7 2.6 0 5-1 6.7-2.7 1.7-1.7 2.7-4.1 2.7-6.7 0-2.6-1-4.9-2.7-6.6zm-8.1 0.3h2.9c0.4 0 0.7 0.4 0.7 0.7v3.5h3.4c0.4 0 0.7 0.3 0.7 0.7v2.9c0 0.4-0.3 0.7-0.7 0.7h-3.4v3.4c0 0.4-0.3 0.7-0.7 0.7h-2.9c-0.4 0-0.7-0.3-0.7-0.7v-3.4h-3.5c-0.3 0-0.6-0.3-0.6-0.7v-2.9c0-0.4 0.3-0.7 0.6-0.7h3.5v-3.5c0-0.3 0.3-0.7 0.7-0.7zm2.2 1.4h-1.5v3.5c0 0.3-0.3 0.7-0.7 0.7h-3.5v1.5h3.5c0.4 0 0.7 0.3 0.7 0.7v3.4h1.5v-3.4c0-0.4 0.3-0.7 0.7-0.7h3.4v-1.5h-3.4c-0.4 0-0.7-0.4-0.7-0.7zm31.5-11.4h-18c-0.4 0-0.8 0.2-1 0.4-0.3 0.3-0.5 0.7-0.5 1.1v5.8h21v-5.8c0-0.4-0.2-0.8-0.5-1.1-0.2-0.2-0.6-0.4-1-0.4zm-47.4-7.5h-34.8c-0.9 0-1.7 0.3-2.3 0.9-0.6 0.6-0.9 1.4-0.9 2.2v18.7h1c0.3 0 0.6 0.2 0.6 0.5 0 0.3-0.3 0.5-0.6 0.5h-1v18.7c0 0.9 0.3 1.7 0.9 2.2 0.6 0.6 1.4 1 2.3 1h36.7v-0.1c-1.1-1.3-1.9-3-1.9-4.9zm-8 25.6c1.1 0 2.1 0.5 2.9 1.2 0.7 0.8 1.2 1.8 1.2 2.9v7.8c0 1.1-0.5 2.2-1.2 2.9-0.8 0.7-1.8 1.2-2.9 1.2-1.2 0-2.2-0.5-3-1.2-0.7-0.7-1.2-1.8-1.2-2.9v-7.8c0-1.1 0.5-2.1 1.2-2.9 0.8-0.7 1.8-1.2 3-1.2zm-11.7 0c1.1 0 2.1 0.5 2.9 1.2 0.7 0.8 1.2 1.8 1.2 2.9v7.8c0 1.1-0.5 2.2-1.2 2.9-0.8 0.7-1.8 1.2-2.9 1.2-1.2 0-2.2-0.5-2.9-1.2-0.8-0.7-1.3-1.8-1.3-2.9v-7.8c0-1.1 0.5-2.1 1.3-2.9 0.7-0.7 1.7-1.2 2.9-1.2zm0 1.4c-0.8 0-1.5 0.3-2 0.8-0.5 0.5-0.8 1.2-0.8 1.9v7.8c0 0.7 0.3 1.4 0.8 1.9 0.5 0.5 1.2 0.8 2 0.8 0.7 0 1.4-0.3 1.9-0.8 0.5-0.5 0.8-1.2 0.8-1.9v-7.8c0-0.7-0.3-1.4-0.8-1.9-0.5-0.5-1.2-0.8-1.9-0.8zm-11.6-1.4c1.1 0 2.1 0.5 2.9 1.2 0.7 0.8 1.2 1.8 1.2 2.9v7.8c0 1.1-0.5 2.2-1.2 2.9-0.8 0.7-1.8 1.2-2.9 1.2-1.2 0-2.2-0.5-2.9-1.2-0.8-0.7-1.3-1.8-1.3-2.9v-7.8c0-1.1 0.5-2.1 1.3-2.9 0.7-0.7 1.7-1.2 2.9-1.2zm0 1.4c-0.8 0-1.5 0.3-2 0.8-0.5 0.5-0.8 1.2-0.8 1.9v7.8c0 0.7 0.3 1.4 0.8 1.9 0.5 0.5 1.2 0.8 2 0.8 0.7 0 1.4-0.3 1.9-0.8 0.5-0.5 0.8-1.2 0.8-1.9v-7.8c0-0.7-0.3-1.4-0.8-1.9-0.5-0.5-1.2-0.8-1.9-0.8zm24-23.5c1.1 0 2.1 0.4 2.9 1.2 0.7 0.7 1.2 1.8 1.2 2.9v7.8c0 1.1-0.5 2.1-1.2 2.9-0.8 0.7-1.8 1.2-2.9 1.2-1.2 0-2.2-0.5-2.9-1.2-0.8-0.8-1.3-1.8-1.3-2.9v-7.8c0-1.1 0.5-2.2 1.3-2.9 0.7-0.8 1.7-1.2 2.9-1.2zm0 1.4c-0.8 0-1.5 0.3-2 0.8-0.5 0.5-0.8 1.1-0.8 1.9v7.8c0 0.7 0.3 1.4 0.8 1.9 0.5 0.5 1.2 0.8 2 0.8 0.7 0 1.4-0.3 1.9-0.8 0.5-0.5 0.8-1.2 0.8-1.9v-7.8c0-0.8-0.3-1.4-0.8-1.9-0.5-0.5-1.2-0.8-1.9-0.8zm-11.7-1.4c1.1 0 2.1 0.4 2.9 1.2 0.7 0.7 1.2 1.8 1.2 2.9v7.8c0 1.1-0.5 2.1-1.2 2.9-0.8 0.7-1.8 1.2-2.9 1.2-1.2 0-2.2-0.5-2.9-1.2-0.8-0.8-1.3-1.8-1.3-2.9v-7.8c0-1.1 0.5-2.2 1.3-2.9 0.7-0.8 1.7-1.2 2.9-1.2zm0 1.4c-0.8 0-1.5 0.3-2 0.8-0.5 0.5-0.8 1.1-0.8 1.9v7.8c0 0.7 0.3 1.4 0.8 1.9 0.5 0.5 1.2 0.8 2 0.8 0.7 0 1.4-0.3 1.9-0.8 0.5-0.5 0.8-1.2 0.8-1.9v-7.8c0-0.8-0.3-1.4-0.8-1.9-0.5-0.5-1.2-0.8-1.9-0.8zm-11.6-1.4c1.1 0 2.1 0.4 2.9 1.2 0.7 0.7 1.2 1.8 1.2 2.9v7.8c0 1.1-0.5 2.1-1.2 2.9-0.8 0.7-1.8 1.2-2.9 1.2-1.2 0-2.2-0.5-2.9-1.2-0.8-0.8-1.3-1.8-1.3-2.9v-7.8c0-1.1 0.5-2.2 1.3-2.9 0.7-0.8 1.7-1.2 2.9-1.2zm0 1.4c-0.8 0-1.5 0.3-2 0.8-0.5 0.5-0.8 1.1-0.8 1.9v7.8c0 0.7 0.3 1.4 0.8 1.9 0.5 0.5 1.2 0.8 2 0.8 0.7 0 1.4-0.3 1.9-0.8 0.5-0.5 0.8-1.2 0.8-1.9v-7.8c0-0.8-0.3-1.4-0.8-1.9-0.5-0.5-1.2-0.8-1.9-0.8zm40.6-17.7v2.5h16.2v-2.5zm15.8-6.8c0-0.2 0.2-0.5 0.5-0.5 0.3 0 0.5 0.3 0.5 0.5v3.1c0 0.3-0.2 0.5-0.5 0.5-0.3 0-0.5-0.2-0.5-0.5zm-33.8 46.6c-0.8 0-1.5 0.3-2 0.8-0.5 0.5-0.8 1.1-0.8 1.9v7.8c0 0.7 0.3 1.4 0.8 1.9 0.5 0.5 1.2 0.8 2 0.8 0.7 0 1.4-0.3 1.9-0.8 0.5-0.5 0.8-1.2 0.8-1.9v-7.8c0-0.8-0.3-1.4-0.8-1.9-0.5-0.5-1.2-0.8-1.9-0.8zm7.5-5.2c0.3 0 0.5 0.2 0.5 0.5 0 0.3-0.2 0.5-0.5 0.5h-2.1c-0.3 0-0.5-0.2-0.5-0.5 0-0.3 0.2-0.5 0.5-0.5zm-7.3 0c0.3 0 0.6 0.2 0.6 0.5 0 0.3-0.3 0.5-0.6 0.5h-2.1c-0.2 0-0.5-0.2-0.5-0.5 0-0.3 0.3-0.5 0.5-0.5zm-7.2 0c0.2 0 0.5 0.2 0.5 0.5 0 0.3-0.3 0.5-0.5 0.5h-2.1c-0.3 0-0.6-0.2-0.6-0.5 0-0.3 0.3-0.5 0.6-0.5zm-7.3 0c0.3 0 0.5 0.2 0.5 0.5 0 0.3-0.2 0.5-0.5 0.5h-2.1c-0.3 0-0.5-0.2-0.5-0.5 0-0.3 0.2-0.5 0.5-0.5zm-7.3 0c0.3 0 0.5 0.2 0.5 0.5 0 0.3-0.2 0.5-0.5 0.5h-2.1c-0.3 0-0.5-0.2-0.5-0.5 0-0.3 0.2-0.6 0.5-0.6z"/></g></svg>