<svg version="1.2" xmlns="http://www.w3.org/2000/svg" viewBox="0 0 98 98" width="98" height="98"><defs><clipPath clipPathUnits="userSpaceOnUse" id="cp1"><path d="m-763-2145h1440v6000h-1440z"/></clipPath></defs><style>.a{fill:#60ffc7}</style><g clip-path="url(#cp1)"><path fill-rule="evenodd" class="a" d="m98 57.1v6c0 0.9-0.7 1.6-1.5 1.6h-28.9v7.5c0 0.9-0.7 1.5-1.5 1.5h-7.5v10.7h10.8c3 0 5.3 2.4 5.3 5.3 0 2.6-1.8 4.7-4.3 5.2-0.6 1.8-2.3 3.1-4.3 3.1-2 0-3.7-1.3-4.3-3h-24.6c-0.6 1.7-2.3 3-4.3 3-2 0-3.7-1.3-4.3-3.1-2.5-0.5-4.3-2.6-4.3-5.2 0-2.9 2.3-5.3 5.3-5.3h10.8v-10.7h-7.5c-0.8 0-1.5-0.6-1.5-1.5v-7.5h-28.9c-0.8 0-1.5-0.7-1.5-1.6v-6c0-0.9 0.7-1.5 1.5-1.5h7.6v-6.5h-7.6c-0.8 0-1.5-0.7-1.5-1.5v-15.2c0-0.8 0.7-1.5 1.5-1.5h18.2c0.8 0 1.5 0.7 1.5 1.5v15.2c0 0.8-0.7 1.5-1.5 1.5h-7.6v6.5h5.6c0.7 0 1.4 0.2 2 0.6 0.6-0.4 1.3-0.6 2-0.6h7.2c0.8 0 1.5 0.6 1.5 1.5 0 0.8-0.7 1.5-1.5 1.5h-7.2c-0.3 0-0.5 0.2-0.5 0.5v2.5h54.6v-2.5c0-0.3-0.2-0.5-0.5-0.5h-40.3c-0.9 0-1.6-0.7-1.6-1.5 0-0.9 0.7-1.5 1.6-1.5h40.3c0.7 0 1.4 0.2 2 0.6 0.6-0.4 1.3-0.6 2-0.6h16.2c0.8 0 1.5 0.6 1.5 1.5zm-94-11h15.2v-12.1h-15.2zm0 15.5h15.2v-2.5c0-0.3-0.2-0.5-0.5-0.5h-14.7zm30.4 31.8c0-0.8-0.6-1.5-1.5-1.5-0.8 0-1.5 0.7-1.5 1.5 0 0.8 0.7 1.5 1.5 1.5 0.9 0 1.5-0.7 1.5-1.5zm33.2 0c0-0.8-0.7-1.5-1.5-1.5-0.9 0-1.5 0.7-1.5 1.5 0 0.8 0.6 1.5 1.5 1.5 0.8 0 1.5-0.7 1.5-1.5zm-12-19.7h-12.2v10.6h1.2c0.8 0 1.5 0.7 1.5 1.5 0 0.9-0.7 1.6-1.5 1.6h-15c-1.3 0-2.3 1-2.3 2.2 0 1 0.6 1.8 1.4 2.1 0.7-1.7 2.3-2.9 4.2-2.9 2 0 3.7 1.3 4.3 3.1h24.6c0.6-1.8 2.3-3.1 4.3-3.1 1.9 0 3.5 1.2 4.2 2.9 0.8-0.3 1.4-1.1 1.4-2.1 0-1.2-1-2.2-2.3-2.2h-19.1c-0.8 0-1.5-0.7-1.5-1.6 0-0.8 0.7-1.5 1.5-1.5h5.3c0 0 0-10.6 0-10.6zm9-9.1h-30.2v6.1h30.2zm30.4-6.1h-14.7c-0.3 0-0.5 0.2-0.5 0.5v2.5h15.2z"/><path class="a" d="m8 39h7.2c0.9 0 1.6-0.7 1.6-1.5 0-0.8-0.7-1.5-1.6-1.5h-7.2c-0.9 0-1.5 0.7-1.5 1.5 0 0.8 0.6 1.5 1.5 1.5z"/><path class="a" d="m16.8 42.5c0-0.8-0.7-1.5-1.6-1.5h-7.2c-0.9 0-1.5 0.7-1.5 1.5 0 0.9 0.6 1.6 1.5 1.6h7.2c0.9 0 1.6-0.7 1.6-1.6z"/><path fill-rule="evenodd" class="a" d="m98 8.6c0 0.8-0.7 1.5-1.5 1.5h-13.3l-8.1 8.1q2.6 3.6 4.2 8c1.3 3.9 0.3 8.3-2.7 11.3l-5.2 5.2c-2.2 2.2-5.2 3.4-8.6 3.4q-1.4 0-2.9-0.3c-4.5-0.8-8.9-3.2-12.6-6.8-3.6-3.7-6.1-8.2-6.8-12.6-0.8-4.7 0.2-8.7 3-11.5l5.3-5.3c2.9-2.9 7.4-4 11.3-2.6q4.8 1.7 8.7 4.7l10.2-10.3c0.3-0.2 0.7-0.4 1.1-0.4h16.4c0.8 0 1.5 0.7 1.5 1.5 0 0.9-0.7 1.5-1.5 1.5h-15.8l-9.6 9.6q0.4 0.4 0.8 0.8 0.7 0.7 1.4 1.4l8.2-8.3c0.3-0.3 0.7-0.4 1.1-0.4h13.9c0.8 0 1.5 0.6 1.5 1.5zm-28.2 7.9c-3-3-6.6-5.2-10.7-6.6-2.7-1-5.8-0.3-8 1.7q2.4-0.2 5 0.4c0.8 0.2 1.3 1 1.1 1.8-0.2 0.8-1 1.3-1.8 1.1-4-0.9-7.5-0.1-9.7 2.1-2.1 2.1-2.9 5.2-2.3 8.9 0.7 3.8 2.8 7.7 6.1 10.9 6.5 6.5 15.3 8.2 19.8 3.8 4.4-4.4 2.7-13.3-3.8-19.8q-2.2-2.2-4.8-3.7c-0.7-0.4-1-1.4-0.5-2.1 0.4-0.7 1.3-0.9 2-0.5 2 1.1 3.8 2.5 5.4 4.1 3.7 3.7 6.1 8.2 6.9 12.6q0.3 2.1 0.2 3.9c2-2.1 2.6-5.2 1.7-7.9-1.4-4.2-3.7-7.7-6.6-10.7z"/><path fill-rule="evenodd" class="a" d="m64.1 22.4c2.1 2.2 2.5 5.1 0.9 6.8-0.7 0.6-1.6 1-2.6 1q-0.4 0-0.9-0.1c-1.1-0.2-2.3-0.9-3.2-1.8-1-1-1.6-2.1-1.9-3.3-0.2-1.4 0.1-2.6 0.9-3.5 1.7-1.6 4.6-1.2 6.8 0.9zm-4.2 1.2q-0.3 0-0.4 0.1c-0.1 0.1-0.2 0.4-0.1 0.7 0.1 0.6 0.5 1.2 1 1.7 0.5 0.5 1.1 0.9 1.7 1 0.3 0.1 0.6 0 0.7-0.1 0.3-0.2 0.2-1.4-0.9-2.4-0.7-0.8-1.5-1-2-1z"/><path fill-rule="evenodd" class="a" d="m52.3 27.2c-1.4 0-2.9-0.7-4.2-1.9-2.1-2.2-2.5-5.1-0.9-6.8 1.6-1.6 4.6-1.2 6.7 1 2.2 2.1 2.6 5.1 1 6.7-0.7 0.7-1.6 1-2.6 1zm-2-4.1c1 1.1 2.2 1.2 2.4 1 0.3-0.3 0.1-1.5-0.9-2.5-0.7-0.7-1.6-1-2.1-1q-0.2 0-0.3 0.1c-0.3 0.3-0.2 1.4 0.9 2.4z"/><path fill-rule="evenodd" class="a" d="m63.5 30.5c1.2 0.2 2.4 0.9 3.3 1.8 1 1 1.6 2.1 1.8 3.3 0.3 1.3 0 2.6-0.9 3.5-0.6 0.6-1.5 1-2.5 1q-0.5 0-1-0.1c-1.1-0.3-2.3-0.9-3.2-1.9-2.2-2.1-2.6-5.1-0.9-6.7 0.8-0.8 2.1-1.2 3.4-0.9zm-0.5 3q-0.2-0.1-0.4-0.1-0.3 0-0.4 0.1c-0.1 0.2-0.1 0.5-0.1 0.8 0.1 0.6 0.5 1.2 1 1.7 0.6 0.5 1.2 0.9 1.7 1 0.4 0.1 0.7 0 0.8-0.1 0.1-0.1 0.1-0.4 0.1-0.7-0.2-0.6-0.5-1.2-1-1.7-0.6-0.6-1.2-0.9-1.7-1z"/><path fill-rule="evenodd" class="a" d="m56.9 29.6c2.1 2.2 2.5 5.1 0.9 6.8-0.7 0.6-1.6 1-2.6 1q-0.4 0-0.9-0.1c-1.1-0.2-2.3-0.9-3.2-1.8-1-1-1.6-2.1-1.9-3.3-0.2-1.4 0.1-2.6 0.9-3.5 1.7-1.6 4.6-1.2 6.8 0.9zm-2.2 2.2c-0.7-0.8-1.5-1-2-1q-0.3 0-0.4 0.1c-0.1 0.1-0.2 0.4-0.1 0.7 0.1 0.6 0.5 1.2 1 1.7 0.5 0.5 1.1 0.9 1.7 1 0.3 0.1 0.6 0 0.7-0.1 0.3-0.2 0.2-1.4-0.9-2.4z"/></g></svg>